<svg id="Capa_1" data-name="Capa 1" xmlns="http://www.w3.org/2000/svg" width="498.85" height="498.85" viewBox="0 0 498.85 498.85">
  <title>authenticator</title>
  <g id="Capa_2" data-name="Capa 2">
    <path d="M1,250.57C1,388.33,112.67,500,250.43,500S499.85,388.33,499.85,250.57,388.18,1.15,250.43,1.15,1,112.82,1,250.57Z" transform="translate(-1 -1.15)" style="fill: #cacaca"/>
    <path d="M65,250.57C65,353,148,436,250.43,436s185.4-83,185.4-185.4-83-185.4-185.4-185.4S65,148.18,65,250.57Z" transform="translate(-1 -1.15)" style="fill: #5e5e5e"/>
    <path d="M430.81,207.65H251.87v75.77H350A104.87,104.87,0,1,1,314.9,167.9l59.46-55.23A184.82,184.82,0,0,0,250.43,65.18C148,65.18,65,148.19,65,250.57S148,436,250.43,436s185.4-83,185.4-185.4a184.51,184.51,0,0,0-5-42.93Z" transform="translate(-1 -1.15)" style="fill: #8d8d8d"/>
    <path d="M233.33,109.38a17.09,17.09,0,0,0,34.18,0v0a17.09,17.09,0,0,0-34.18,0Z" transform="translate(-1 -1.15)" style="fill: #cacaca"/>
    <path d="M134,150.3a17.09,17.09,0,0,0,34.18,0v0a17.09,17.09,0,1,0-34.18,0h0Z" transform="translate(-1 -1.15)" style="fill: #cacaca"/>
    <path d="M92.7,250.57a17.09,17.09,0,1,0,34.18,0v0a17.09,17.09,0,1,0-34.18,0Z" transform="translate(-1 -1.15)" style="fill: #cacaca"/>
    <path d="M134,350.57a17.09,17.09,0,1,0,34.18,0v0a17.09,17.09,0,0,0-34.18,0Z" transform="translate(-1 -1.15)" style="fill: #cacaca"/>
    <path d="M233.33,392.16a17.09,17.09,0,1,0,34.18,0v0a17.09,17.09,0,0,0-34.18,0Z" transform="translate(-1 -1.15)" style="fill: #cacaca"/>
    <path d="M333.55,350.57a17.09,17.09,0,1,0,17.09-17.09A17.09,17.09,0,0,0,333.55,350.57Z" transform="translate(-1 -1.15)" style="fill: #cacaca"/>
    <path d="M375.53,250.57a17.09,17.09,0,1,0,17.09-17.09,17.09,17.09,0,0,0-17.09,17.09Z" transform="translate(-1 -1.15)" style="fill: #cacaca"/>
  </g>
</svg>
